<?xml version="1.0" encoding="utf-8"?>
<!-- Generator: Adobe Illustrator 16.0.0, SVG Export Plug-In . SVG Version: 6.00 Build 0)  -->
<!DOCTYPE svg PUBLIC "-//W3C//DTD SVG 1.1//EN" "http://www.w3.org/Graphics/SVG/1.1/DTD/svg11.dtd">
<svg version="1.1" xmlns="http://www.w3.org/2000/svg" xmlns:xlink="http://www.w3.org/1999/xlink" x="0px" y="0px"
	 width="283.46px" height="283.46px" viewBox="0 0 283.46 283.46" enable-background="new 0 0 283.46 283.46" xml:space="preserve">
<g id="Layer_1">
</g>
<g id="Isolation_Mode">
	<rect x="135.297" y="76.117" fill="#010101" width="106.691" height="33.41"/>
	<rect x="48.276" y="113.43" fill="#010101" width="6.017" height="10.717"/>
	<rect x="59.779" y="113.43" fill="#010101" width="6.016" height="10.717"/>
	<rect x="71.286" y="113.43" fill="#010101" width="6.016" height="10.717"/>
	<rect x="103.371" y="113.43" fill="#010101" width="6.018" height="10.717"/>
	<rect x="124.708" y="113.43" fill="#010101" width="6.016" height="10.717"/>
	<rect x="86.89" y="113.43" fill="#010101" width="6.017" height="10.717"/>
	<rect x="147.48" y="119.561" fill="#010101" width="10.43" height="14.409"/>
	<rect x="171.445" y="119.561" fill="#010101" width="10.43" height="14.409"/>
	<rect x="195.412" y="119.561" fill="#010101" width="10.43" height="14.409"/>
	<rect x="219.377" y="119.561" fill="#010101" width="10.428" height="14.409"/>
	<rect x="83.215" y="83.486" fill="#010101" width="13.889" height="5.477"/>
	<rect x="114.312" y="83.486" fill="#010101" width="13.889" height="5.477"/>
	<rect x="52.121" y="83.486" fill="#010101" width="13.889" height="5.477"/>
	<polygon fill="#010101" points="135.297,102.687 135.297,87.905 40.712,87.905 40.712,105.087 63.125,92.57 85.536,105.087 
		94.773,105.087 117.184,92.57 	"/>
	<polygon fill="#010101" points="48.697,191.317 71.298,191.317 71.298,196.811 40.206,196.811 40.206,193.553 61.34,157.606 
		40.716,157.606 40.716,152.119 69.702,152.119 69.702,155.439 	"/>
	<path fill="#010101" d="M108.264,196.808l-3.512-9.513H85.726l-3.446,9.513h-6.705l17.302-44.688h5.365l17.109,44.688H108.264z
		 M87.77,181.806h15.003l-7.469-20.367h-0.064L87.77,181.806z"/>
	<path fill="#010101" d="M131.249,159.206l-0.574,24.193h-5.682l-0.574-24.193v-7.09h6.83V159.206z M124.483,189.403h6.705v7.407
		h-6.705V189.403z"/>
	<polygon fill="#010101" points="157.293,168.164 155.277,168.164 150.324,155.643 150.324,168.164 147.48,168.164 147.48,152.112 
		151.768,152.112 156.309,163.874 160.963,152.112 165.203,152.112 165.203,168.164 162.361,168.164 162.361,155.69 	"/>
	<polygon fill="#010101" points="169.561,168.164 169.561,152.112 179.58,152.112 179.58,154.543 172.404,154.543 172.404,158.691 
		179.58,158.691 179.58,161.126 172.404,161.126 172.404,165.733 179.58,165.733 179.58,168.164 	"/>
	<path fill="#010101" d="M183.318,152.112h4.541c4.1,0,8.713,2.157,8.713,7.957c0,5.938-4.543,8.095-8.943,8.095h-4.311V152.112z
		 M186.162,165.733h0.525c4.084,0,6.879-1.4,6.879-5.458c0-3.737-2.27-5.732-6.1-5.732h-1.305V165.733z"/>
	<polygon fill="#010101" points="200.217,168.164 200.217,152.112 210.238,152.112 210.238,154.543 203.061,154.543 
		203.061,158.691 210.238,158.691 210.238,161.126 203.061,161.126 203.061,165.733 210.238,165.733 210.238,168.164 	"/>
	<polygon fill="#010101" points="224.752,168.164 216.818,157.318 216.818,168.164 213.975,168.164 213.975,152.112 
		216.475,152.112 224.453,162.981 224.453,152.112 227.299,152.112 227.299,168.164 	"/>
	<path fill="#010101" d="M235.139,168.164v-6.833l-5.092-9.219h3.508l3.121,6.168h0.041l3.236-6.168h3.305l-5.277,9.332v6.72
		H235.139z M236.193,151.289l-1.264-1.583l3.898-3.255l1.469,1.926L236.193,151.289z"/>
	<polygon fill="#010101" points="157.82,196.818 157.82,189.78 150.322,189.78 150.322,196.818 147.48,196.818 147.48,180.767 
		150.322,180.767 150.322,187.35 157.82,187.35 157.82,180.767 160.664,180.767 160.664,196.818 	"/>
	<path fill="#010101" d="M169.904,180.77h2.363l6.074,16.049h-3.254l-1.123-3.164h-6.191l-1.148,3.164h-3.119L169.904,180.77z
		 M168.643,191.271h4.475l-2.205-6.168h-0.021L168.643,191.271z M170.363,179.943l-1.262-1.58l3.898-3.256l1.469,1.925
		L170.363,179.943z"/>
	<polygon fill="#010101" points="190.977,196.818 188.959,196.818 184.008,184.299 184.008,196.818 181.164,196.818 
		181.164,180.767 185.451,180.767 189.99,192.532 194.646,180.767 198.887,180.767 198.887,196.818 196.043,196.818 
		196.043,184.346 	"/>
	<path fill="#010101" d="M210.859,197.094c-4.729,0-8.324-3.715-8.324-8.299c0-4.586,3.596-8.301,8.324-8.301
		c4.742,0,8.346,3.715,8.346,8.301C219.205,193.379,215.602,197.094,210.859,197.094 M210.859,182.994
		c-3.076,0-5.322,2.543-5.322,5.801c0,3.256,2.246,5.799,5.322,5.799c3.092,0,5.34-2.543,5.34-5.799
		C216.199,185.537,213.951,182.994,210.859,182.994"/>
	<path fill="#010101" d="M227.801,180.77c2.543,0,5.711,1.308,5.711,4.725c0,2.589-1.789,3.964-3.67,4.491l4.977,6.833h-3.529
		l-4.586-6.558h-1.01v6.558h-2.844V180.77H227.801z M227.273,187.831c1.859,0,3.234-0.664,3.234-2.27c0-1.422-1.123-2.36-2.775-2.36
		h-2.039v4.63H227.273z"/>
</g>
</svg>
