<?xml version="1.0" encoding="utf-8"?>
<!-- Generator: Adobe Illustrator 16.0.0, SVG Export Plug-In . SVG Version: 6.00 Build 0)  -->
<!DOCTYPE svg PUBLIC "-//W3C//DTD SVG 1.1//EN" "http://www.w3.org/Graphics/SVG/1.1/DTD/svg11.dtd">
<svg version="1.1" xmlns="http://www.w3.org/2000/svg" xmlns:xlink="http://www.w3.org/1999/xlink" x="0px" y="0px"
	 width="283.46px" height="283.46px" viewBox="0 0 283.46 283.46" enable-background="new 0 0 283.46 283.46" xml:space="preserve">
<g id="Layer_1">
</g>
<g id="Isolation_Mode">
	<rect x="136.13" y="98.988" fill="#010101" width="71.856" height="22.502"/>
	<rect x="77.521" y="124.118" fill="#010101" width="4.052" height="7.218"/>
	<rect x="85.27" y="124.118" fill="#010101" width="4.052" height="7.218"/>
	<rect x="93.019" y="124.118" fill="#010101" width="4.052" height="7.218"/>
	<rect x="114.628" y="124.118" fill="#010101" width="4.052" height="7.218"/>
	<rect x="128.999" y="124.118" fill="#010101" width="4.052" height="7.218"/>
	<rect x="103.528" y="124.118" fill="#010101" width="4.052" height="7.218"/>
	<rect x="144.336" y="128.247" fill="#010101" width="7.024" height="9.705"/>
	<rect x="160.477" y="128.247" fill="#010101" width="7.023" height="9.705"/>
	<rect x="176.617" y="128.247" fill="#010101" width="7.024" height="9.705"/>
	<rect x="192.758" y="128.247" fill="#010101" width="7.023" height="9.705"/>
	<rect x="101.054" y="103.951" fill="#010101" width="9.354" height="3.688"/>
	<rect x="121.997" y="103.951" fill="#010101" width="9.354" height="3.688"/>
	<rect x="80.111" y="103.951" fill="#010101" width="9.354" height="3.688"/>
	<polygon fill="#010101" points="136.13,116.883 136.13,106.928 72.427,106.928 72.427,118.5 87.522,110.069 102.616,118.5 
		108.837,118.5 123.931,110.069 	"/>
	<polygon fill="#010101" points="77.805,176.575 93.027,176.575 93.027,180.274 72.086,180.274 72.086,178.081 86.32,153.872 
		72.43,153.872 72.43,150.175 91.952,150.175 91.952,152.411 	"/>
	<path fill="#010101" d="M117.924,180.272l-2.365-6.406h-12.814l-2.321,6.406h-4.516l11.653-30.098h3.613l11.523,30.098H117.924z
		 M104.121,170.169h10.105l-5.031-13.717h-0.043L104.121,170.169z"/>
	<path fill="#010101" d="M133.404,154.948l-0.387,16.295h-3.827l-0.387-16.295v-4.775h4.601V154.948z M128.847,175.286h4.516v4.988
		h-4.516V175.286z"/>
	<polygon fill="#010101" points="150.945,160.981 149.586,160.981 146.251,152.548 146.251,160.981 144.336,160.981 
		144.336,150.171 147.223,150.171 150.281,158.093 153.416,150.171 156.271,150.171 156.271,160.981 154.357,160.981 
		154.357,152.581 	"/>
	<polygon fill="#010101" points="159.207,160.981 159.207,150.171 165.955,150.171 165.955,151.808 161.121,151.808 
		161.121,154.603 165.955,154.603 165.955,156.241 161.121,156.241 161.121,159.345 165.955,159.345 165.955,160.981 	"/>
	<path fill="#010101" d="M168.473,150.171h3.058c2.763,0,5.868,1.453,5.868,5.359c0,4-3.059,5.451-6.023,5.451h-2.902V150.171z
		 M170.387,159.345h0.355c2.749,0,4.632-0.943,4.632-3.676c0-2.518-1.528-3.861-4.106-3.861h-0.881V159.345z"/>
	<polygon fill="#010101" points="179.854,160.981 179.854,150.171 186.602,150.171 186.602,151.808 181.77,151.808 181.77,154.603 
		186.602,154.603 186.602,156.241 181.77,156.241 181.77,159.345 186.602,159.345 186.602,160.981 	"/>
	<polygon fill="#010101" points="196.377,160.981 191.034,153.677 191.034,160.981 189.119,160.981 189.119,150.171 
		190.803,150.171 196.176,157.491 196.176,150.171 198.092,150.171 198.092,160.981 	"/>
	<path fill="#010101" d="M203.373,160.981v-4.602l-3.43-6.209h2.363l2.102,4.154h0.029l2.178-4.154h2.225l-3.553,6.285v4.525
		H203.373z M204.084,149.616l-0.852-1.066l2.625-2.191l0.99,1.297L204.084,149.616z"/>
	<polygon fill="#010101" points="151.299,180.28 151.299,175.54 146.25,175.54 146.25,180.28 144.336,180.28 144.336,169.47 
		146.25,169.47 146.25,173.903 151.299,173.903 151.299,169.47 153.215,169.47 153.215,180.28 	"/>
	<path fill="#010101" d="M159.438,169.472h1.592l4.092,10.809h-2.192l-0.757-2.131h-4.17l-0.772,2.131h-2.101L159.438,169.472z
		 M158.588,176.544h3.013l-1.483-4.154h-0.016L158.588,176.544z M159.746,168.915l-0.849-1.064l2.625-2.193l0.989,1.297
		L159.746,168.915z"/>
	<polygon fill="#010101" points="173.631,180.28 172.271,180.28 168.937,171.849 168.937,180.28 167.021,180.28 167.021,169.47 
		169.908,169.47 172.967,177.394 176.102,169.47 178.957,169.47 178.957,180.28 177.043,180.28 177.043,171.88 	"/>
	<path fill="#010101" d="M187.02,180.466c-3.183,0-5.605-2.502-5.605-5.59s2.423-5.59,5.605-5.59c3.195,0,5.621,2.502,5.621,5.59
		S190.215,180.466,187.02,180.466 M187.02,170.97c-2.069,0-3.584,1.713-3.584,3.906s1.515,3.906,3.584,3.906
		c2.084,0,3.598-1.713,3.598-3.906S189.104,170.97,187.02,170.97"/>
	<path fill="#010101" d="M198.432,169.472c1.713,0,3.846,0.881,3.846,3.182c0,1.744-1.205,2.67-2.473,3.025l3.352,4.602h-2.377
		l-3.088-4.416h-0.68v4.416h-1.915v-10.809H198.432z M198.076,174.228c1.252,0,2.178-0.447,2.178-1.529
		c0-0.957-0.756-1.59-1.869-1.59h-1.373v3.119H198.076z"/>
</g>
</svg>
